<svg width="24" height="24" viewBox="0 0 24 24" fill="none" xmlns="http://www.w3.org/2000/svg">
<g clip-path="url(#clip0_111_857)">
<path d="M12.0469 23.9062C18.586 23.9062 24 18.4805 24 11.9531C24 5.41406 18.5743 0 12.0352 0C5.50787 0 0.093811 5.41406 0.093811 11.9531C0.093811 18.4805 5.51959 23.9062 12.0469 23.9062ZM12.0469 21.9141C6.51569 21.9141 2.09772 17.4844 2.09772 11.9531C2.09772 6.42188 6.50397 1.99219 12.0352 1.99219C17.5665 1.99219 22.0079 6.42188 22.0079 11.9531C22.0079 17.4844 17.5782 21.9141 12.0469 21.9141Z" fill="#4F4F4F"/>
<path d="M9.99615 18.5156H14.7657C15.2461 18.5156 15.6211 18.1641 15.6211 17.6836C15.6211 17.2266 15.2461 16.8633 14.7657 16.8633H13.3126V10.8984C13.3126 10.2656 12.9961 9.84375 12.3985 9.84375H10.1954C9.7149 9.84375 9.3399 10.207 9.3399 10.6641C9.3399 11.1445 9.7149 11.4961 10.1954 11.4961H11.4493V16.8633H9.99615C9.51569 16.8633 9.14069 17.2266 9.14069 17.6836C9.14069 18.1641 9.51569 18.5156 9.99615 18.5156ZM11.9415 7.89844C12.7969 7.89844 13.4649 7.21875 13.4649 6.36328C13.4649 5.50781 12.7969 4.82812 11.9415 4.82812C11.0977 4.82812 10.418 5.50781 10.418 6.36328C10.418 7.21875 11.0977 7.89844 11.9415 7.89844Z" fill="#4F4F4F"/>
</g>
<defs>
<clipPath id="clip0_111_857">
<rect width="23.9062" height="23.918" fill="white" transform="translate(0.093811)"/>
</clipPath>
</defs>
</svg>
