<svg width="25" height="24" viewBox="0 0 25 24" fill="none" xmlns="http://www.w3.org/2000/svg">
<path d="M3.81529 4.04083C3.3931 4.04083 2.98822 4.20855 2.68969 4.50707C2.39116 4.8056 2.22345 5.21048 2.22345 5.63267V20.7551C2.22345 21.1773 2.39116 21.5822 2.68969 21.8807C2.98822 22.1792 3.3931 22.347 3.81529 22.347H21.3255C21.7476 22.347 22.1526 22.1792 22.4511 21.8807C22.7495 21.5822 22.9173 21.1773 22.9173 20.7551V5.63267C22.9173 5.21048 22.7495 4.8056 22.4511 4.50707C22.1526 4.20855 21.7476 4.04083 21.3255 4.04083H18.1418" stroke="#4F4F4F" stroke-width="2" stroke-linecap="round" stroke-linejoin="round"/>
<path d="M2.22345 9.61227H22.9173" stroke="#4F4F4F" stroke-width="2" stroke-linecap="round" stroke-linejoin="round"/>
<path d="M6.99896 1.65308V6.42859" stroke="#4F4F4F" stroke-width="2" stroke-linecap="round" stroke-linejoin="round"/>
<path d="M18.1418 1.65308V6.42859" stroke="#4F4F4F" stroke-width="2" stroke-linecap="round" stroke-linejoin="round"/>
<path d="M6.99896 4.04083H14.9581" stroke="#4F4F4F" stroke-width="2" stroke-linecap="round" stroke-linejoin="round"/>
</svg>
