<svg width="24" height="24" viewBox="0 0 24 24" fill="none" xmlns="http://www.w3.org/2000/svg">
<path d="M6.3856 7.51736C6.3856 7.51736 4.79376 12.4521 4.79376 16.2725C4.79376 21.048 7.97744 21.8439 11.957 21.8439C15.9366 21.8439 19.1203 21.048 19.1203 16.2725C19.1203 12.4521 17.5285 7.51736 17.5285 7.51736" stroke="#4F4F4F" stroke-width="2" stroke-linecap="round" stroke-linejoin="round"/>
<path d="M10.3652 16.2725L11.957 17.0684L13.5488 16.2725" stroke="#4F4F4F" stroke-width="2" stroke-linecap="round" stroke-linejoin="round"/>
<path d="M14.7427 10.701V11.497" stroke="#4F4F4F" stroke-width="2" stroke-linecap="round" stroke-linejoin="round"/>
<path d="M9.17133 10.701V11.497" stroke="#4F4F4F" stroke-width="2" stroke-linecap="round" stroke-linejoin="round"/>
<path d="M4.96089 13.8847H4.1602C-0.615312 13.0888 2.52061 6.23276 4.79375 4.3337C6.57979 2.83897 9.89877 2.15607 12 2.15607C14.1012 2.15607 17.4202 2.84056 19.2062 4.3337C21.4778 6.23276 24.6137 13.0888 19.8382 13.8847H18.9579" stroke="#4F4F4F" stroke-width="2" stroke-linecap="round" stroke-linejoin="round"/>
</svg>
