<svg width="19" height="19" viewBox="0 0 19 19" fill="none" xmlns="http://www.w3.org/2000/svg">
<path d="M4.65625 16.2188C3.1875 16.2188 2.49219 15.5156 2.49219 14.0469V12.3906C2.49219 12.25 2.45312 12.1406 2.35156 12.0391L1.17969 10.8672C0.140625 9.82812 0.132812 8.84375 1.17969 7.80469L2.35156 6.625C2.45312 6.52344 2.49219 6.42188 2.49219 6.27344V4.61719C2.49219 3.14062 3.1875 2.45312 4.65625 2.45312H6.32031C6.46094 2.45312 6.5625 2.41406 6.66406 2.30469L7.84375 1.14062C8.89062 0.101562 9.85938 0.09375 10.9062 1.14062L12.0781 2.30469C12.1875 2.41406 12.2891 2.45312 12.4297 2.45312H14.0859C15.5547 2.45312 16.2578 3.15625 16.2578 4.61719V6.27344C16.2578 6.42188 16.2969 6.51562 16.3984 6.625L17.5703 7.80469C18.6016 8.84375 18.6094 9.82812 17.5703 10.8672L16.3984 12.0391C16.2969 12.1406 16.2578 12.25 16.2578 12.3906V14.0469C16.2578 15.5156 15.5547 16.2188 14.0859 16.2188H12.4297C12.2891 16.2188 12.1875 16.25 12.0781 16.3594L10.9062 17.5312C9.86719 18.5625 8.88281 18.5703 7.84375 17.5312L6.66406 16.3594C6.5625 16.25 6.46094 16.2188 6.32031 16.2188H4.65625ZM4.84375 14.6641H6.84375C7.07031 14.6641 7.24219 14.7266 7.40625 14.8984L8.8125 16.3047C9.30469 16.7891 9.44531 16.7891 9.9375 16.3047L11.3359 14.8984C11.5078 14.7266 11.6797 14.6641 11.9062 14.6641H13.9062C14.5859 14.6641 14.6953 14.5547 14.6953 13.8672L14.7031 11.8672C14.7031 11.6406 14.7734 11.4688 14.9375 11.3047L16.3438 9.89844C16.8281 9.40625 16.8281 9.26562 16.3438 8.77344L14.9375 7.36719C14.7734 7.20312 14.7031 7.03125 14.6953 6.80469V4.80469C14.6953 4.11719 14.5859 4.00781 13.9062 4.00781H11.9062C11.6797 4.00781 11.5 3.94531 11.3359 3.77344L9.9375 2.36719C9.44531 1.875 9.30469 1.88281 8.8125 2.36719L7.40625 3.77344C7.24219 3.94531 7.07031 4.00781 6.84375 4.00781H4.84375C4.14844 4.00781 4.04688 4.10938 4.04688 4.80469V6.80469C4.04688 7.03125 3.97656 7.20312 3.8125 7.36719L2.39844 8.77344C1.91406 9.26562 1.91406 9.40625 2.39844 9.89844L3.8125 11.3047C3.97656 11.4688 4.04688 11.6406 4.04688 11.8672V13.8672C4.04688 14.5547 4.15625 14.6641 4.84375 14.6641ZM8.54688 13.0469C8.24219 13.0469 8 12.9141 7.78125 12.6406L5.97656 10.4609C5.82812 10.2812 5.75781 10.1016 5.75781 9.89844C5.75781 9.48438 6.09375 9.15625 6.5 9.15625C6.75 9.15625 6.94531 9.24219 7.13281 9.48438L8.52344 11.2344L11.4844 6.46875C11.6641 6.17969 11.8906 6.03906 12.1484 6.03906C12.5469 6.03906 12.9141 6.32812 12.9141 6.74219C12.9141 6.92969 12.8281 7.11719 12.7188 7.29688L9.28125 12.6328C9.10938 12.8984 8.84375 13.0469 8.54688 13.0469Z" fill="#006D77"/>
</svg>
