<svg width="25" height="24" viewBox="0 0 25 24" fill="none" xmlns="http://www.w3.org/2000/svg">
<path d="M12.5235 22.3468C10.1918 19.7796 7.02972 18.117 3.59328 17.6509C3.20213 17.6076 2.84088 17.4209 2.57925 17.127C2.31762 16.833 2.17416 16.4525 2.17654 16.059V3.24472C2.17653 3.0148 2.22632 2.78759 2.3225 2.57875C2.41868 2.36991 2.55896 2.18438 2.73369 2.03492C2.90534 1.88819 3.10624 1.77966 3.32307 1.71653C3.53987 1.65341 3.76765 1.63714 3.99124 1.6688C7.27725 2.21418 10.2833 3.85182 12.5235 6.31697V22.3468Z" stroke="#4F4F4F" stroke-width="2" stroke-linecap="round" stroke-linejoin="round"/>
<path d="M12.5234 22.3468C14.8551 19.7796 18.0172 18.117 21.4536 17.6509C21.8448 17.6076 22.2061 17.4209 22.4676 17.127C22.7293 16.833 22.8728 16.4525 22.8704 16.059V3.24472C22.8704 3.0148 22.8206 2.78759 22.7244 2.57875C22.6283 2.36991 22.488 2.18438 22.3132 2.03492C22.1416 1.88819 21.9407 1.77966 21.7239 1.71653C21.507 1.65341 21.2793 1.63714 21.0557 1.6688C17.7697 2.21418 14.7636 3.85182 12.5234 6.31697V22.3468Z" stroke="#4F4F4F" stroke-width="2" stroke-linecap="round" stroke-linejoin="round"/>
</svg>
